<?xml version="1.0" encoding="utf-8"?>
<!-- Generator: Adobe Illustrator 25.3.1, SVG Export Plug-In . SVG Version: 6.00 Build 0)  -->
<svg version="1.1" id="Слой_1" xmlns="http://www.w3.org/2000/svg" xmlns:xlink="http://www.w3.org/1999/xlink" x="0px" y="0px"
	 viewBox="0 0 24 24" style="enable-background:new 0 0 24 24;" xml:space="preserve">
<style type="text/css">
	.st0{fill:#525252;}
</style>
<path class="st0" d="M22,8.2c0,0.8-0.1,1.5-0.4,2.2c-0.3,0.7-0.7,1.5-1.4,2.4c-0.7,0.9-1.5,1.9-2.6,3c-1.1,1.1-2.5,2.4-4.2,3.9
	L12,21l-1.5-1.3c-1.7-1.5-3.1-2.8-4.2-3.9c-1.1-1.1-2-2.1-2.6-3c-0.7-0.9-1.1-1.7-1.4-2.4C2.1,9.7,2,8.9,2,8.2
	c0-1.6,0.5-2.9,1.6-3.9c1-1,2.3-1.6,3.9-1.6c0.9,0,1.7,0.2,2.5,0.5c0.8,0.4,1.5,0.9,2,1.5c0.6-0.7,1.2-1.2,2-1.5
	c0.8-0.4,1.6-0.5,2.5-0.5c1.6,0,2.9,0.5,3.9,1.6C21.5,5.3,22,6.6,22,8.2z"/>
<path class="st0" d="M20.4,4.2c-1-1-2.4-1.6-3.9-1.6c-0.9,0-1.7,0.2-2.5,0.5c-0.8,0.4-1.5,0.9-2,1.5c-0.6-0.7-1.2-1.2-2-1.5
	C9.2,2.8,8.4,2.7,7.5,2.7c-1.6,0-2.9,0.5-3.9,1.6C2.5,5.3,2,6.6,2,8.2c0,0.8,0.1,1.5,0.4,2.2c0.3,0.7,0.7,1.5,1.4,2.4
	c0.7,0.9,1.5,1.9,2.6,3c1.1,1.1,2.5,2.4,4.2,3.9L12,21l1.5-1.3c1.7-1.5,3.1-2.8,4.2-3.9c1.1-1.1,2-2.1,2.6-3
	c0.7-0.9,1.1-1.7,1.4-2.4C21.9,9.7,22,8.9,22,8.2C22,6.6,21.5,5.3,20.4,4.2z M19.7,9.9c-0.2,0.6-0.7,1.3-1.2,2
	c-0.6,0.8-1.4,1.7-2.5,2.7c-1,1-2.4,2.3-4,3.7c-1.6-1.4-2.9-2.7-4-3.7c-1-1-1.8-1.9-2.5-2.7c-0.6-0.8-1-1.4-1.2-2
	C4.1,9.3,4,8.7,4,8.2c0-1,0.3-1.8,1-2.5c0.7-0.7,1.5-1,2.5-1c0.8,0,1.5,0.2,2.2,0.7c0.7,0.4,1.1,1,1.4,1.7H13
	c0.2-0.7,0.7-1.2,1.4-1.7c0.7-0.4,1.4-0.7,2.2-0.7c1,0,1.8,0.3,2.5,1c0.7,0.7,1,1.5,1,2.5C20,8.7,19.9,9.3,19.7,9.9z"/>
</svg>
